<?xml version="1.0" encoding="UTF-8" standalone="no"?>
<!-- Created with Inkscape (http://www.inkscape.org/) -->

<svg
   width="31.999998"
   height="31.999998"
   viewBox="0 0 8.466666 8.4666661"
   version="1.1"
   id="svg1"
   xml:space="preserve"
   sodipodi:docname="export.svg"
   inkscape:version="1.4.2 (1:1.4.2+202505120737+ebf0e940d0)"
   xmlns:inkscape="http://www.inkscape.org/namespaces/inkscape"
   xmlns:sodipodi="http://sodipodi.sourceforge.net/DTD/sodipodi-0.dtd"
   xmlns="http://www.w3.org/2000/svg"
   xmlns:svg="http://www.w3.org/2000/svg"><sodipodi:namedview
     id="namedview1"
     pagecolor="#ffffff"
     bordercolor="#000000"
     borderopacity="0.25"
     inkscape:showpageshadow="2"
     inkscape:pageopacity="0.0"
     inkscape:pagecheckerboard="0"
     inkscape:deskcolor="#d1d1d1"
     inkscape:zoom="8.1317285"
     inkscape:cx="11.25222"
     inkscape:cy="45.931194"
     inkscape:window-width="2494"
     inkscape:window-height="1531"
     inkscape:window-x="66"
     inkscape:window-y="32"
     inkscape:window-maximized="1"
     inkscape:current-layer="svg1" /><defs
     id="defs1" /><g
     id="layer2"><path
       id="rect15"
       style="display:inline;fill:#000000;fill-opacity:1;stroke:none;stroke-width:0.56128"
       d="m 1.7564819,0.40927734 c -0.4145885,0 -0.7482747,0.33368622 -0.7482747,0.74827476 v 6.1624145 c 0,0.4145885 0.3336862,0.7482748 0.7482747,0.7482748 h 5.0580892 c 0.4145885,0 0.7482748,-0.3336863 0.7482748,-0.7482748 V 5.8345574 L 6.7912027,6.4878235 c 0.045968,0.279828 -0.3074433,0.7596821 -0.592473,0.7596821 h -3.709476 c -0.2850294,0 -0.7099201,-0.4248905 -0.7099201,-0.7099201 V 1.9399333 c 0,-0.2850295 0.2595259,-0.7099202 0.5445555,-0.7099202 h 3.8748406 c 0.2536021,0 0.5964019,0.4334133 0.5842048,0.8199106 l 0.7799114,0.744733 V 1.1575521 c 0,-0.41458854 -0.3336863,-0.74827476 -0.7482748,-0.74827476 z M 6.1354288,2.5453553 V 3.8301074 H 3.1718994 V 4.7748286 H 6.1354288 V 6.1308942 L 8.1504069,4.3381247 Z"
       sodipodi:nodetypes="ssssssccssssssccssscccccccc" /></g></svg>
