<?xml version="1.0" encoding="UTF-8" standalone="no"?>
<!-- Created with Inkscape (http://www.inkscape.org/) -->

<svg
   width="31.999998"
   height="31.999998"
   viewBox="0 0 8.466666 8.4666661"
   version="1.1"
   id="svg1"
   xml:space="preserve"
   sodipodi:docname="find.svg"
   inkscape:version="1.4.2 (1:1.4.2+202505120737+ebf0e940d0)"
   xmlns:inkscape="http://www.inkscape.org/namespaces/inkscape"
   xmlns:sodipodi="http://sodipodi.sourceforge.net/DTD/sodipodi-0.dtd"
   xmlns="http://www.w3.org/2000/svg"
   xmlns:svg="http://www.w3.org/2000/svg"><sodipodi:namedview
     id="namedview1"
     pagecolor="#ffffff"
     bordercolor="#000000"
     borderopacity="0.25"
     inkscape:showpageshadow="2"
     inkscape:pageopacity="0.0"
     inkscape:pagecheckerboard="0"
     inkscape:deskcolor="#d1d1d1"
     inkscape:zoom="11.500001"
     inkscape:cx="8.8260864"
     inkscape:cy="16.652173"
     inkscape:window-width="2494"
     inkscape:window-height="1531"
     inkscape:window-x="66"
     inkscape:window-y="32"
     inkscape:window-maximized="1"
     inkscape:current-layer="svg1" /><defs
     id="defs1" /><g
     id="layer2"><path
       id="rect11"
       style="fill:#000000;fill-opacity:1;stroke:none;stroke-width:0.26544"
       d="M 4.1217827,0.80656518 C 3.5686795,1.3597866 3.5687679,2.2566377 4.1219803,2.80975 c 0.5531443,0.5530261 1.449843,0.5530261 2.0029873,0 C 6.341957,2.5928593 6.4826617,2.3113805 6.5259207,2.0076461 H 6.9053343 L 7.06204,2.1679088 H 8.4974878 V 1.4786409 l -1.4354478,0 -0.1752812,0.1792334 H 6.5318491 C 6.4975513,1.3359694 6.3540243,1.035525 6.1251652,0.80656518 c -0.5531895,-0.55328959 -1.450193,-0.55328959 -2.0033825,0 z M 4.3825866,1.0673691 c 0.3605654,-0.36065216 1.1212093,-0.36065216 1.4817747,0 0.3604658,0.3605974 0.3603773,1.1210888 -1.976e-4,1.481577 -0.3605202,0.3603887 -1.1208593,0.3603887 -1.4813795,0 C 4.0222093,2.1884579 4.0221208,1.4279665 4.3825866,1.0673691 Z m 1.2327417,3.1464086 c -0.037158,0.037157 -0.03696,0.09702 1.976e-4,0.134178 l 0.3219086,0.3219087 c 0.037158,0.037158 0.096823,0.037158 0.1339804,0 L 6.3933236,4.3479557 c 0.037157,-0.037157 0.037355,-0.09702 1.976e-4,-0.134178 L 6.0716126,3.891869 c -0.037158,-0.037158 -0.097218,-0.037158 -0.1343757,0 z M 6.2223899,3.6067161 c -0.037157,0.037157 -0.03696,0.09702 1.976e-4,0.134178 l 0.3219087,0.3219086 c 0.037158,0.037158 0.096823,0.037158 0.1339804,0 L 7.0003853,3.7408941 c 0.037157,-0.037157 0.037355,-0.09702 1.976e-4,-0.134178 L 6.6786742,3.2848074 c -0.037158,-0.037158 -0.097218,-0.037158 -0.1343756,0 z M 6.8294516,2.9996544 c -0.037158,0.037157 -0.03696,0.09702 1.976e-4,0.134178 l 0.3219086,0.3219087 c 0.037158,0.037158 0.096823,0.037158 0.1339804,0 L 7.6074469,3.1338324 c 0.037157,-0.037157 0.037355,-0.09702 1.976e-4,-0.134178 L 7.2857358,2.6777457 c -0.037158,-0.037158 -0.097218,-0.037158 -0.1343756,0 z"
       transform="matrix(1.3075278,1.3075278,-1.3075278,1.3075278,-1.142686,-6.0465602)"
       sodipodi:nodetypes="ccccccccccccccccccccscscsccscscscscsccscscscc" /></g></svg>
