<?xml version="1.0" encoding="UTF-8" standalone="no"?>
<!-- Created with Inkscape (http://www.inkscape.org/) -->

<svg
   width="31.999998"
   height="31.999998"
   viewBox="0 0 8.466666 8.4666661"
   version="1.1"
   id="svg1"
   xml:space="preserve"
   sodipodi:docname="import.svg"
   inkscape:version="1.4.2 (1:1.4.2+202505120737+ebf0e940d0)"
   xmlns:inkscape="http://www.inkscape.org/namespaces/inkscape"
   xmlns:sodipodi="http://sodipodi.sourceforge.net/DTD/sodipodi-0.dtd"
   xmlns="http://www.w3.org/2000/svg"
   xmlns:svg="http://www.w3.org/2000/svg"><sodipodi:namedview
     id="namedview1"
     pagecolor="#ffffff"
     bordercolor="#000000"
     borderopacity="0.25"
     inkscape:showpageshadow="2"
     inkscape:pageopacity="0.0"
     inkscape:pagecheckerboard="0"
     inkscape:deskcolor="#d1d1d1"
     inkscape:zoom="11.500001"
     inkscape:cx="20.521737"
     inkscape:cy="34.739127"
     inkscape:window-width="1247"
     inkscape:window-height="1531"
     inkscape:window-x="1313"
     inkscape:window-y="32"
     inkscape:window-maximized="0"
     inkscape:current-layer="svg1" /><defs
     id="defs1" /><g
     id="layer2"><path
       id="path19"
       style="display:inline;fill:#000000;fill-opacity:1;stroke:none;stroke-width:0.404772"
       d="m 1.7564819,0.40927734 c -0.4145885,0 -0.7482747,0.33368622 -0.7482747,0.74827476 V 3.0660202 H 1.836513 V 1.9399333 c 0,-0.2850295 0.3677113,-0.6527408 0.6527407,-0.6527408 h 3.5925456 c 0.2850297,0 0.652224,0.3677113 0.652224,0.6527408 v 4.5976522 c 0,0.2850296 -0.3671943,0.6527407 -0.652224,0.6527407 H 2.4892537 c -0.2850294,0 -0.6527407,-0.3677111 -0.6527407,-0.6527407 V 5.5121051 H 1.0082072 v 1.8078615 c 0,0.4145885 0.3336862,0.7482748 0.7482747,0.7482748 h 5.0580892 c 0.4145885,0 0.7482748,-0.3336863 0.7482748,-0.7482748 V 1.1575521 c 0,-0.41458854 -0.3336863,-0.74827476 -0.7482748,-0.74827476 z M 3.0934186,2.5803974 V 3.9032691 H 0.18706868 V 4.7020519 H 3.0934186 v 1.2421757 l 1.934114,-1.6059103 z"
       sodipodi:nodetypes="ssccssssssssccssssssscccccccc" /></g></svg>
