<?xml version="1.0" encoding="UTF-8" standalone="no"?>
<!-- Created with Inkscape (http://www.inkscape.org/) -->

<svg
   width="31.999998"
   height="31.999998"
   viewBox="0 0 8.466666 8.4666661"
   version="1.1"
   id="svg1"
   xml:space="preserve"
   sodipodi:docname="new.svg"
   inkscape:version="1.4.2 (1:1.4.2+202505120737+ebf0e940d0)"
   xmlns:inkscape="http://www.inkscape.org/namespaces/inkscape"
   xmlns:sodipodi="http://sodipodi.sourceforge.net/DTD/sodipodi-0.dtd"
   xmlns="http://www.w3.org/2000/svg"
   xmlns:svg="http://www.w3.org/2000/svg"><sodipodi:namedview
     id="namedview1"
     pagecolor="#ffffff"
     bordercolor="#000000"
     borderopacity="0.25"
     inkscape:showpageshadow="2"
     inkscape:pageopacity="0.0"
     inkscape:pagecheckerboard="0"
     inkscape:deskcolor="#d1d1d1"
     inkscape:zoom="11.500001"
     inkscape:cx="7.7826082"
     inkscape:cy="27.782607"
     inkscape:window-width="2494"
     inkscape:window-height="1531"
     inkscape:window-x="66"
     inkscape:window-y="32"
     inkscape:window-maximized="1"
     inkscape:current-layer="svg1" /><defs
     id="defs1" /><g
     id="layer2"><path
       id="rect16"
       style="display:inline;fill:#000000;fill-opacity:1;stroke:none;stroke-width:0.352778;stroke-dasharray:none"
       d="m 2.264978,0.44596761 c -0.3754369,0 -0.6779948,0.30204119 -0.6779948,0.67747799 V 4.3608618 H 2.3022525 V 1.7033676 c 0,-0.244682 0.2891803,-0.5338625 0.5338624,-0.5338625 h 2.7990877 c 0.2446821,0 0.5563529,0.2891805 0.5563529,0.5338625 v 3.8873933 c 0,0.244682 -0.3116708,0.5568697 -0.5563529,0.5568697 H 4.0654973 v 0.692262 c 0,0.00278 1.292e-4,0.00552 0,0.00827 h 2.1408422 c 0.3754369,0 0.677478,-0.3020411 0.677478,-0.677478 v -5.047239 c 0,-0.3754368 -0.3020411,-0.67747799 -0.677478,-0.67747799 z M 1.6841125,4.982035 c -0.079039,0 -0.1431438,0.071278 -0.1431438,0.1601969 v 0.936377 H 0.60510856 c -0.0889193,0 -0.16071371,0.063588 -0.16071371,0.1426269 v 0.5215276 c 0,0.079039 0.0717944,0.1426269 0.16071371,0.1426269 H 1.5409687 v 0.936377 c 0,0.088919 0.064105,0.1601969 0.1431438,0.1601969 h 0.5210107 c 0.079039,0 0.142627,-0.071278 0.142627,-0.1601969 v -0.936377 h 0.9363769 c 0.088919,0 0.160197,-0.063588 0.160197,-0.1426269 V 6.2212358 c 0,-0.079039 -0.071278,-0.1426269 -0.160197,-0.1426269 H 2.3477502 v -0.936377 c 0,-0.088919 -0.063588,-0.1601969 -0.142627,-0.1601969 z"
       sodipodi:nodetypes="ssccsssssscscssssssscsssscsssscsssscsss" /></g></svg>
