<?xml version="1.0" encoding="UTF-8" standalone="no"?>
<!-- Created with Inkscape (http://www.inkscape.org/) -->

<svg
   width="31.999998"
   height="31.999998"
   viewBox="0 0 8.466666 8.4666661"
   version="1.1"
   id="svg1"
   xml:space="preserve"
   sodipodi:docname="open.svg"
   inkscape:version="1.4.2 (1:1.4.2+202505120737+ebf0e940d0)"
   xmlns:inkscape="http://www.inkscape.org/namespaces/inkscape"
   xmlns:sodipodi="http://sodipodi.sourceforge.net/DTD/sodipodi-0.dtd"
   xmlns="http://www.w3.org/2000/svg"
   xmlns:svg="http://www.w3.org/2000/svg"><sodipodi:namedview
     id="namedview1"
     pagecolor="#ffffff"
     bordercolor="#000000"
     borderopacity="0.25"
     inkscape:showpageshadow="2"
     inkscape:pageopacity="0.0"
     inkscape:pagecheckerboard="0"
     inkscape:deskcolor="#d1d1d1"
     inkscape:zoom="11.500001"
     inkscape:cx="8.3043473"
     inkscape:cy="30.478259"
     inkscape:window-width="2494"
     inkscape:window-height="1531"
     inkscape:window-x="66"
     inkscape:window-y="32"
     inkscape:window-maximized="1"
     inkscape:current-layer="svg1" /><defs
     id="defs1" /><g
     id="layer2"><path
       id="rect20"
       style="display:inline;fill:#000000;fill-opacity:1;stroke:none;stroke-width:0.346001"
       d="m 0.98133545,0.54053548 c -0.1485269,0 -0.2740472,0.10543195 -0.26820068,0.26820069 0.005847,0.16276874 -0.0113692,5.00580773 -0.0113692,5.50043903 0,0.4946313 0.29962633,0.6717936 0.67179363,0.6717936 h 1.5146362 v 0.1751831 c 0,0.3821987 0.3076817,0.6898804 0.6898804,0.6898804 h 2.9817301 c 0.3821988,0 0.6898804,-0.3076817 0.6898804,-0.6898804 V 6.9716675 c 0.3192202,-0.052411 0.5612064,-0.3279847 0.5612064,-0.6624919 0,-1.1666815 -0.0098,-4.7000659 -0.00604,-4.8415649 C 7.8086179,1.3261117 7.7318083,1.3022135 7.629509,1.298112 7.5272097,1.2940105 3.4773071,1.286226 3.4773071,1.286226 V 0.80873617 c 0,-0.1485269 -0.1196738,-0.26820069 -0.2682007,-0.26820069 z M 1.1224121,1.7890381 H 7.3664754 V 2.5654204 H 1.1224121 Z m 2.9171346,1.4230116 h 2.0587891 c 0.2925573,0 0.5281331,0.235576 0.5281331,0.5281332 V 6.790081 c 0,0.2925573 -0.2355758,0.5276163 -0.5281331,0.5276163 H 4.0395467 c -0.2925573,0 -0.5281331,-0.235059 -0.5281331,-0.5276163 V 3.7401829 c 0,-0.2925572 0.2355758,-0.5281332 0.5281331,-0.5281332 z"
       sodipodi:nodetypes="scsscsssscscscssscccccsssssssss" /></g></svg>
