<?xml version="1.0" encoding="UTF-8" standalone="no"?>
<!-- Created with Inkscape (http://www.inkscape.org/) -->

<svg
   width="31.999998"
   height="31.999998"
   viewBox="0 0 8.466666 8.4666661"
   version="1.1"
   id="svg1"
   xml:space="preserve"
   sodipodi:docname="saveas.svg"
   inkscape:version="1.4.2 (1:1.4.2+202505120737+ebf0e940d0)"
   xmlns:inkscape="http://www.inkscape.org/namespaces/inkscape"
   xmlns:sodipodi="http://sodipodi.sourceforge.net/DTD/sodipodi-0.dtd"
   xmlns="http://www.w3.org/2000/svg"
   xmlns:svg="http://www.w3.org/2000/svg"><sodipodi:namedview
     id="namedview1"
     pagecolor="#ffffff"
     bordercolor="#000000"
     borderopacity="0.25"
     inkscape:showpageshadow="2"
     inkscape:pageopacity="0.0"
     inkscape:pagecheckerboard="0"
     inkscape:deskcolor="#d1d1d1"
     inkscape:zoom="11.500001"
     inkscape:cx="7.8695648"
     inkscape:cy="40.652172"
     inkscape:window-width="2494"
     inkscape:window-height="1531"
     inkscape:window-x="66"
     inkscape:window-y="32"
     inkscape:window-maximized="1"
     inkscape:current-layer="svg1" /><defs
     id="defs1" /><g
     id="layer2"><path
       id="path12"
       style="display:inline;fill:#000000;fill-opacity:1;stroke:none;stroke-width:0.144803;stroke-dasharray:none"
       d="m 1.2447996,3.5304209 c -0.1549478,0 -0.27974389,0.1247961 -0.27974389,0.2797439 v 2.4014381 c 0,0.1549478 0.12479609,0.2797439 0.27974389,0.2797439 h 1.957928 c 0.1549478,0 0.2797439,-0.1247961 0.2797439,-0.2797439 V 3.8101648 c 0,-0.1549478 -0.1247961,-0.2797439 -0.2797439,-0.2797439 z m 0.3758797,0.3786378 h 1.2061686 c 0.1175988,0 0.2870465,0.1691675 0.2870465,0.286767 v 1.6200555 c 0,0.1175988 -0.1694475,0.2870465 -0.2870465,0.2870465 H 1.6206793 c -0.1175989,0 -0.2870465,-0.1694475 -0.2870465,-0.2870465 V 4.1958257 c 0,-0.1175988 0.1694475,-0.286767 0.2870465,-0.286767 z M 3.781219,4.3886562 V 4.6393358 H 4.5913865 V 4.3886562 Z m 0,0.617337 V 5.5171337 H 4.5913865 V 5.0059932 Z m 0,0.8775184 V 6.7344809 H 3.361184 L 4.1906345,7.6173091 5.0021993,6.7344809 H 4.5913865 V 5.8835116 Z M 0.81794804,6.9549662 c -0.0496138,0 -0.0894286,0.040094 -0.0894286,0.089708 v 0.447702 c 0,0.049614 0.0398148,0.089429 0.0894286,0.089429 H 1.2656501 c 0.049614,0 0.089708,-0.039815 0.089708,-0.089429 v -0.447702 c 0,-0.049614 -0.040094,-0.089708 -0.089708,-0.089708 z m 0.85823536,0 c -0.049614,0 -0.089429,0.040094 -0.089429,0.089708 v 0.447702 c 0,0.049614 0.039815,0.089429 0.089429,0.089429 h 0.4479815 c 0.049614,0 0.089429,-0.039815 0.089429,-0.089429 v -0.447702 c 0,-0.049614 -0.039815,-0.089708 -0.089429,-0.089708 z m 0.8777978,0 c -0.049614,0 -0.089708,0.040094 -0.089708,0.089708 v 0.447702 c 0,0.049614 0.040094,0.089429 0.089708,0.089429 h 0.4477021 c 0.049614,0 0.089708,-0.039815 0.089708,-0.089429 v -0.447702 c 0,-0.049614 -0.040094,-0.089708 -0.089708,-0.089708 z"
       transform="matrix(1.8491236,0,0,1.8491236,-1.142686,-6.0465602)"
       sodipodi:nodetypes="ssssssssssssssssssccccccccccccccccccsssssssssssssssssssssssssss" /></g></svg>
