<?xml version="1.0" encoding="UTF-8" standalone="no"?>
<!-- Created with Inkscape (http://www.inkscape.org/) -->

<svg
   width="31.999998"
   height="31.999998"
   viewBox="0 0 8.466666 8.4666661"
   version="1.1"
   id="svg1"
   xml:space="preserve"
   sodipodi:docname="scrset.svg"
   inkscape:version="1.4.2 (1:1.4.2+202505120737+ebf0e940d0)"
   xmlns:inkscape="http://www.inkscape.org/namespaces/inkscape"
   xmlns:sodipodi="http://sodipodi.sourceforge.net/DTD/sodipodi-0.dtd"
   xmlns="http://www.w3.org/2000/svg"
   xmlns:svg="http://www.w3.org/2000/svg"><sodipodi:namedview
     id="namedview1"
     pagecolor="#ffffff"
     bordercolor="#000000"
     borderopacity="0.25"
     inkscape:showpageshadow="2"
     inkscape:pageopacity="0.0"
     inkscape:pagecheckerboard="0"
     inkscape:deskcolor="#d1d1d1"
     inkscape:zoom="11.500001"
     inkscape:cx="19.260868"
     inkscape:cy="19.260868"
     inkscape:window-width="2494"
     inkscape:window-height="1531"
     inkscape:window-x="66"
     inkscape:window-y="32"
     inkscape:window-maximized="1"
     inkscape:current-layer="svg1" /><defs
     id="defs1" /><g
     id="layer2"><path
       id="path31"
       style="display:inline;fill:#000000;fill-opacity:1;stroke:none;stroke-width:0.55867"
       d="m 1.758549,0.44441732 c -0.4171882,0 -0.7529256,0.33573746 -0.7529256,0.75292558 v 6.1179729 c 0,0.4171882 0.3357374,0.7529256 0.7529256,0.7529256 h 5.089095 c 0.4171883,0 0.7529257,-0.3357374 0.7529257,-0.7529256 V 1.1973429 c 0,-0.41718812 -0.3357374,-0.75292558 -0.7529257,-0.75292558 z M 2.2677641,1.1957027 h 4.0701481 c 0.3148108,0 0.6374625,0.3226518 0.6374625,0.6374626 V 6.8864014 L 4.9676555,4.0870891 c 0,0 0.5607097,-0.7479027 0.080098,-1.4154175 C 4.5671435,2.0041569 3.8995041,2.2179529 3.8995036,2.2179525 L 4.5402914,3.2328776 3.4990113,3.9000204 2.8313518,2.7786418 c 0,0 -0.5607098,0.7746065 -0.080099,1.335319 0.4806105,0.5607123 1.335319,0.4268473 1.335319,0.4268473 0,0 1.059687,1.7439781 1.6288411,2.7761478 H 2.2677641 c -0.3148108,0 -0.6369458,-0.3226517 -0.6369458,-0.6374625 V 1.8331653 c 0,-0.3148108 0.322135,-0.6374626 0.6369458,-0.6374626 z"
       sodipodi:nodetypes="sssssssssssscccccccsccssss" /></g></svg>
